<svg xmlns="http://www.w3.org/2000/svg" aria-hidden="true" focusable="false" data-prefix="fas" data-icon="download" role="img" width="512" height="512" style=""><rect id="backgroundrect" width="100%" height="100%" x="0" y="0" fill="none" stroke="none"/><g class="currentLayer" style=""><title>Layer 1</title><path fill="#ffffff" d="M211.89041090011597,0 h80 c13.3,0 24,10.7 24,24 v168 h87.7 c17.8,0 26.7,21.5 14.1,34.1 L265.59041090011596,378.3 c-7.5,7.5 -19.8,7.5 -27.3,0 L85.99041090011596,226.1 c-12.6,-12.6 -3.7,-34.1 14.1,-34.1 H187.89041090011597 V24 c0,-13.3 10.7,-24 24,-24 zm296,376 v112 c0,13.3 -10.7,24 -24,24 H19.890410900115967 c-13.3,0 -24,-10.7 -24,-24 V376 c0,-13.3 10.7,-24 24,-24 h146.7 l49,49 c20.1,20.1 52.5,20.1 72.6,0 l49,-49 H483.89041090011597 c13.3,0 24,10.7 24,24 zm-124,88 c0,-11 -9,-20 -20,-20 s-20,9 -20,20 s9,20 20,20 s20,-9 20,-20 zm64,0 c0,-11 -9,-20 -20,-20 s-20,9 -20,20 s9,20 20,20 s20,-9 20,-20 z" id="svg_1" class="selected" opacity="1" stroke="#ffffff" stroke-opacity="1" fill-opacity="1"/></g></svg>